<svg width="58" height="79" viewBox="0 0 58 79" fill="none" xmlns="http://www.w3.org/2000/svg">
<path id="Vector" d="M29.1014 0L25.8669 3.25264C24.8204 4.30496 0.561111 28.9867 0.561111 49.9376C0.561111 65.7224 13.4043 78.6373 29.1014 78.6373C44.7986 78.6373 57.6417 65.7224 57.6417 49.9376C57.6417 29.0824 33.3825 4.30496 32.336 3.25264L29.1014 0ZM14.8313 45.1543C17.495 45.1543 19.588 47.2589 19.588 49.9376C19.588 55.1992 23.869 59.5041 29.1014 59.5041C31.7652 59.5041 33.8581 61.6088 33.8581 64.2874C33.8581 66.9661 31.7652 69.0707 29.1014 69.0707C18.6366 69.0707 10.0745 60.4608 10.0745 49.9376C10.0745 47.2589 12.1675 45.1543 14.8313 45.1543Z" fill="#FF6B6B"/>
</svg>
