<svg width="77" height="65" viewBox="0 0 77 65" fill="none" xmlns="http://www.w3.org/2000/svg">
<path id="Vector" fill-rule="evenodd" clip-rule="evenodd" d="M33.2117 0C35.8586 0 38.2746 0.906889 40.1111 2.40056L40.1245 2.38821L40.138 2.4006C41.9745 0.906889 44.3905 0 47.0374 0C52.7851 0 57.4444 4.27692 57.4444 9.55279C57.4444 11.9822 56.4565 14.1998 54.829 15.8855L54.4071 16.2978L40.1245 29.4076L25.4064 15.8979C23.7792 14.2122 22.8046 11.9822 22.8046 9.55279C22.8046 4.27692 27.4641 0 33.2117 0ZM40.3697 10.4104L40.1245 10.211L39.8797 10.41L36.0681 6.91192L35.9745 6.83577C35.2502 6.2466 34.2929 5.88151 33.2117 5.88151C30.8398 5.88151 29.1028 7.62032 29.1028 9.55279C29.1028 10.4398 29.4342 11.237 29.9893 11.8575L40.1245 21.1606L49.9228 12.167L50.1986 11.8974C50.8028 11.2489 51.1463 10.4372 51.1463 9.55279C51.1463 7.62032 49.4093 5.88151 47.0374 5.88151C45.9562 5.88151 44.9989 6.2466 44.2746 6.83577L44.181 6.91168L40.3697 10.4104ZM3.91018 32.3483H19.6556V35.2891H38.55C43.7674 35.2891 47.9972 39.2391 47.9972 44.1113C47.9972 48.9836 43.7674 52.9336 38.55 52.9336H29.1028V47.0521H38.55C40.2891 47.0521 41.6991 45.7354 41.6991 44.1113C41.6991 42.4873 40.2891 41.1706 38.55 41.1706H19.6556V55.8744H24.109L25.9796 57.6212C26.6732 58.2689 27.6503 58.5779 28.6226 58.4567L66.945 53.6853C68.7173 53.4645 70.0407 52.053 70.0407 50.3834C70.0407 48.5437 68.4435 47.0521 66.4735 47.0521H51.1463V41.1706H66.4735C71.9222 41.1706 76.3389 45.2951 76.3389 50.3834C76.3389 55.0008 72.6784 58.9049 67.7776 59.515L29.455 64.2869C26.5383 64.65 23.6069 63.7231 21.5262 61.7802L21.5002 61.7559H19.6556V64.6966H3.91018L0.761108 61.7559V35.2891L3.91018 32.3483ZM13.3574 58.8151V38.2298H7.05926V58.8151H13.3574Z" fill="#FF6B6B"/>
</svg>
